<?xml version="1.0" encoding="utf-8"?>
<!-- Generator: Adobe Illustrator 27.0.1, SVG Export Plug-In . SVG Version: 6.00 Build 0)  -->
<svg version="1.1" id="Layer_1" xmlns="http://www.w3.org/2000/svg" xmlns:xlink="http://www.w3.org/1999/xlink" x="0px" y="0px"
	 viewBox="0 0 360 360" style="enable-background:new 0 0 360 360;" xml:space="preserve">
<path d="M180,106.7c-38.2,0-69.1,31-69.1,69.1s31,69.1,69.1,69.1s69.1-31,69.1-69.1S218.2,106.7,180,106.7L180,106.7z M180,237.3
	c-33.9,0-61.4-27.5-61.4-61.4s27.5-61.4,61.4-61.4c33.9,0,61.4,27.5,61.4,61.4c0,0,0,0,0,0C241.4,209.8,213.9,237.3,180,237.3z
	 M164.6,180.6c0,4.7-3.8,8.5-8.5,8.5s-8.5-3.8-8.5-8.5c0-4.7,3.8-8.5,8.5-8.5C160.8,172.1,164.6,175.8,164.6,180.6
	C164.6,180.5,164.6,180.5,164.6,180.6L164.6,180.6z M212.3,180.6c0,4.7-3.8,8.5-8.5,8.5c-4.7,0-8.5-3.8-8.5-8.5
	c0-4.7,3.8-8.5,8.5-8.5c0,0,0,0,0,0C208.5,172.1,212.3,175.9,212.3,180.6C212.3,180.5,212.3,180.5,212.3,180.6L212.3,180.6z
	 M220,162.9l7.8-8.5h-17.3c-18.4-12.5-42.5-12.5-60.8,0h-17.4l7.8,8.5c-9.7,8.9-10.3,24-1.4,33.7s24,10.3,33.7,1.4l0,0l7.6,8.3
	l7.6-8.3c9.7,8.9,24.8,8.3,33.7-1.4C230.3,187,229.7,171.9,220,162.9z M156.2,196.7c-8.9,0-16.1-7.2-16.1-16.1s7.2-16.1,16.1-16.1
	s16.1,7.2,16.1,16.1C172.4,189.5,165.1,196.7,156.2,196.7C156.2,196.7,156.2,196.7,156.2,196.7L156.2,196.7z M180,180.1
	c0-10.6-7.7-19.7-17.9-23.6c11.5-4.8,24.4-4.8,35.8,0C187.7,160.4,180,169.5,180,180.1z M203.9,196.7c-8.9,0-16.1-7.2-16.1-16.1
	c0-8.9,7.2-16.1,16.1-16.1c8.9,0,16.1,7.2,16.1,16.1S212.8,196.7,203.9,196.7L203.9,196.7z"/>
<path d="M141.5,252.3c0,0-8.4-6.4-23.5-8.2c-9.1-0.9-18.3,1.2-26.1,6.2c0,0,10,4.1,25.4,5.7C132.7,257.6,141.5,252.3,141.5,252.3z"
	/>
<path d="M118.1,239.1c0,0-7.5-7.8-21.6-13.1c-8.9-3.2-18.4-3.9-27.6-2c0,0,8.6,8.2,23.6,13.9S118.1,239.1,118.1,239.1z"/>
<path d="M95.7,220.7c0,0-4.4-10.7-16.1-21.5c-7.4-6.6-16.5-11-26.3-12.7c0,0,5.3,11.6,17.7,23.1S95.7,220.7,95.7,220.7z"/>
<path d="M91.3,200.1c0,0-1.5-11.6-9.9-25c-5.4-8.3-13-14.9-22-19c0,0,2.1,12.6,11.1,26.9S91.3,200.1,91.3,200.1z"/>
<path d="M91.8,172.5c0,0-0.4-11.8-7.5-26.2c-4.5-8.8-11.4-16.2-19.9-21.3c1.2,9.8,4,19.4,8.5,28.3C80.5,168.6,91.8,172.5,91.8,172.5
	z"/>
<path d="M125.3,231.2c0,0-3.5-8.8-13-17.7c-6-5.4-13.4-9.1-21.3-10.6c3.6,7.1,8.4,13.6,14.3,19C115.3,231.4,125.3,231.2,125.3,231.2
	z"/>
<path d="M149.2,244.3c-4-3.5-8.7-6.3-13.7-8.2c-5.5-2.1-11.5-2.7-17.3-1.8c4.5,3.7,9.6,6.6,15,8.7
	C142.6,246.7,149.2,244.3,149.2,244.3z"/>
<path d="M172.3,249c-4-1.4-8.3-2-12.6-1.8c-4.7,0.2-9.2,1.7-13.1,4.4c4.4,1.4,9.1,2,13.7,1.8C168.3,253.1,172.3,249,172.3,249z"/>
<path d="M114.9,210c0,0-1.6-9.4-9.1-20c-4.7-6.6-11.2-11.6-18.7-14.7c2,7.7,5.5,15,10.1,21.5C105.1,208.2,114.9,210,114.9,210z"/>
<path d="M105.6,181.4c0,0,1.8-9.5-1.2-22.2c-2-7.8-6.1-15-12-20.5c-0.8,8.1-0.3,16.2,1.7,24.1C97.2,176.3,105.6,181.4,105.6,181.4z"
	/>
<path d="M218.5,252.3c0,0,8.4-6.4,23.5-8.2c9.1-0.9,18.4,1.2,26.1,6.2c0,0-10.1,4.1-25.4,5.7C227.4,257.6,218.5,252.3,218.5,252.3z"
	/>
<path d="M242,239.1c0,0,7.5-7.8,21.6-13.1c8.9-3.2,18.4-3.9,27.6-2c0,0-8.6,8.2-23.6,13.9S242,239.1,242,239.1z"/>
<path d="M264.4,220.7c0,0,4.4-10.7,16.1-21.5c7.4-6.6,16.5-11,26.3-12.7c0,0-5.3,11.6-17.7,23.1S264.4,220.7,264.4,220.7z"/>
<path d="M268.8,200.1c0,0,1.5-11.6,9.9-25c5.4-8.3,13-14.9,22-19c0,0-2.1,12.6-11.1,26.9S268.8,200.1,268.8,200.1z"/>
<path d="M268.2,172.5c0,0,0.4-11.8,7.5-26.2c4.5-8.8,11.4-16.2,19.9-21.3c-1.2,9.8-4,19.4-8.5,28.3
	C279.6,168.6,268.2,172.5,268.2,172.5z"/>
<path d="M234.7,231.2c0,0,3.5-8.8,13-17.7c6-5.4,13.4-9.1,21.4-10.6c-3.6,7.1-8.4,13.6-14.3,19C244.7,231.4,234.7,231.2,234.7,231.2
	z"/>
<path d="M210.9,244.3c4-3.5,8.7-6.3,13.8-8.2c5.5-2.1,11.5-2.7,17.3-1.8c-4.5,3.7-9.6,6.6-15,8.7
	C217.4,246.7,210.9,244.3,210.9,244.3z"/>
<path d="M187.7,249c4-1.4,8.3-2,12.6-1.8c4.7,0.2,9.2,1.7,13.1,4.4c-4.4,1.4-9,2-13.7,1.8C191.7,253.1,187.7,249,187.7,249z"/>
<path d="M245.2,210c0,0,1.6-9.4,9.1-20c4.7-6.6,11.2-11.6,18.7-14.7c-2,7.7-5.5,15-10.1,21.5C254.9,208.2,245.2,210,245.2,210z"/>
<path d="M254.5,181.4c0,0-1.8-9.5,1.2-22.2c2-7.8,6.1-15,12-20.5c0.9,8.1,0.3,16.2-1.7,24.1C262.8,176.3,254.5,181.4,254.5,181.4z"
	/>
<circle cx="180" cy="252.4" r="3.8"/>
<path d="M100.4,30h-9v26.5h-7V30h-9v-6.4h24.9L100.4,30z"/>
<path d="M112.6,33.3v6.2h-3.5c-2.5,0-3.8,1.2-3.8,3.8v13.2h-6.6V33.3h6.1v4.3c0.2-2.5,2.3-4.4,4.8-4.3H112.6z"/>
<path d="M113.4,44.9c0-6.8,4.8-12.3,11.5-12.3c2.7-0.2,5.3,0.8,7.3,2.6v-2h6.1v23.2h-6.1v-2.8c-1.5,2-3.7,3.5-7.5,3.5
	C118.2,57.2,113.4,51.7,113.4,44.9z M132.1,44.9c0.1-3.4-2.5-6.2-5.9-6.4c-3.4-0.1-6.2,2.5-6.4,5.9c0,0.2,0,0.3,0,0.5
	c-0.1,3.4,2.5,6.2,5.9,6.4c3.4,0.1,6.2-2.5,6.4-5.9C132.2,45.2,132.2,45.1,132.1,44.9z"/>
<path d="M140.8,33.3h7l3.5,12.3c0.4,1.4,0.7,2.3,0.9,3.4c0.2-1.1,0.5-2,0.9-3.4l3.5-12.3h7.1L156,56.5h-7.5L140.8,33.3z"/>
<path d="M187.3,46.5h-17.2c0.1,3,2.6,5.3,5.6,5.3c2.7,0,4.6-1.4,5.2-3.5h6.3c-1.1,5.7-5.3,9-11.5,9c-7.3,0-12.1-5.4-12.1-12.3
	c-0.2-6.6,5-12.1,11.6-12.3c0.1,0,0.3,0,0.4,0c7.3,0,11.7,4.5,11.7,12.8L187.3,46.5z M170.4,41.5h10.8c-0.7-2.3-2.5-3.8-5.5-3.8
	C173.2,37.7,171.1,39.3,170.4,41.5L170.4,41.5z"/>
<path d="M190.2,23.6h6.6v32.9h-6.6V23.6z"/>
<path d="M200.7,23.6h6.6v32.9h-6.6V23.6z"/>
<path d="M233.7,46.5h-17.2c0.1,2.9,2.6,5.3,5.5,5.3c2.7,0,4.6-1.4,5.2-3.5h6.3c-1.1,5.7-5.3,9-11.5,9c-7.3,0-12.1-5.4-12.1-12.3
	c-0.2-6.6,5-12.1,11.6-12.3c0.1,0,0.3,0,0.4,0c7.3,0,11.8,4.5,11.8,12.8L233.7,46.5z M216.8,41.5h10.8c-0.7-2.3-2.5-3.8-5.5-3.8
	C219.7,37.7,217.6,39.3,216.8,41.5z"/>
<path d="M250.5,33.3v6.2H247c-2.5,0-3.8,1.2-3.8,3.8v13.2h-6.6V33.3h6.1v4.3c0.2-2.5,2.3-4.4,4.8-4.3H250.5z"/>
<path d="M252.3,48.9h6.7c-0.1,1.4,0.9,2.6,2.2,2.7c0.1,0,0.2,0,0.3,0c1.5,0,2.5-0.8,2.5-1.9s-1-2-3.1-2.6l-3.1-0.9
	c-3-0.9-5.2-3-5.2-6.4c0-4.3,3.9-7.1,8.7-7.1c5.5,0,8.5,3.1,8.5,7.4h-6.2c0-1.2-1-2.2-2.2-2.2c0,0,0,0-0.1,0c-1.3,0-2.2,0.8-2.2,1.6
	c0,1.1,0.9,1.6,2.7,2.1l3.4,0.9c3.1,0.8,5.3,3,5.3,6.4c0,4.4-3.4,8.2-8.9,8.2C256.4,57.2,252.3,54,252.3,48.9z"/>
<path d="M272.8,34.3h0.6c1.6,0,3-0.8,3.3-3.2c-0.3,0.1-0.6,0.2-0.9,0.2c-2.2,0.1-4-1.7-4.1-3.9c0-0.1,0-0.1,0-0.2
	c0-2.3,1.9-4.1,4.1-4.1c0,0,0,0,0,0c3,0,4.6,2.7,4.6,6.3c0,5.7-2.8,8.4-6.7,8.4h-1L272.8,34.3z"/>
<path d="M105.1,82.3c0-10.1,7.5-17.1,16.6-17.1c8.8,0,14.4,4.9,15.6,12.7h-7.1c-1-3.8-4.1-6.2-8.6-6.2c-5.3,0-9.6,4.3-9.6,10.6
	s4.3,10.7,9.6,10.7c4.4,0,7.5-2.3,8.6-6.2h7.2c-1.4,7.9-7.6,12.7-15.8,12.7C112.5,99.4,105.1,92.4,105.1,82.3z"/>
<path d="M140.3,65.9h6.6v12.8c1-1.9,3.7-3.8,7.4-3.8c4.6,0,7.8,3.2,7.8,8.6v15.3h-6.6V85.3c0.1-2.4-1.7-4.4-4.1-4.5
	c-2.4-0.1-4.4,1.7-4.5,4.1c0,0.1,0,0.3,0,0.4v13.4h-6.6V65.9z"/>
<path d="M164.7,87.2c0-6.8,5-12.3,12.5-12.3s12.6,5.4,12.6,12.3s-5,12.3-12.6,12.3S164.7,94,164.7,87.2z M183.2,87.2
	c-0.1-3.3-2.8-5.9-6.1-5.8c-3.3,0.1-5.9,2.8-5.8,6.1c0.1,3.3,2.7,5.8,6,5.8c3.2,0.1,5.9-2.4,6-5.6C183.2,87.5,183.2,87.3,183.2,87.2
	z"/>
<path d="M191.4,68.5c0-2.3,1.8-4.1,4.1-4.1c2.3,0,4.1,1.8,4.1,4.1c0,2.3-1.8,4.1-4.1,4.1c0,0,0,0,0,0
	C193.3,72.6,191.4,70.8,191.4,68.5C191.4,68.5,191.4,68.5,191.4,68.5z M192.3,75.6h6.6v23.2h-6.6V75.6z"/>
<path d="M201.4,87.2c-0.2-6.6,4.9-12.1,11.5-12.3c0.3,0,0.5,0,0.8,0c7.3,0,11.3,3.9,12,9.3h-6.9c-0.7-1.9-2.3-3.2-5.1-3.2
	c-3.4,0.2-6,3.2-5.7,6.6c0.2,3.1,2.7,5.5,5.7,5.7c2.8,0,4.4-1.2,5.1-3.2h6.9c-1.1,5.7-4.9,9.3-12,9.3c-6.6,0.2-12.1-5-12.3-11.5
	C201.4,87.7,201.4,87.4,201.4,87.2z"/>
<path d="M250.6,88.7h-17.2c0.1,3,2.6,5.3,5.6,5.3c2.7,0,4.6-1.4,5.2-3.5h6.3c-1.1,5.7-5.3,9-11.5,9c-7.3,0-12.1-5.4-12.1-12.3
	c-0.2-6.6,5-12.1,11.6-12.3c0.1,0,0.3,0,0.4,0c7.3,0,11.7,4.5,11.7,12.8L250.6,88.7z M233.7,83.8h10.8c-0.7-2.3-2.5-3.8-5.5-3.8
	C236.6,80,234.4,81.5,233.7,83.8z"/>
<polygon points="248.4,66.7 252.9,66.7 252.9,67.7 251.2,67.7 251.2,72.9 250.1,72.9 250.1,67.7 248.4,67.7 "/>
<path d="M256.8,71.3l-1.7-4.6h-1.3v6.2h1v-3.4c0-0.3,0-0.6-0.1-0.9l1.6,4.4h0.8l1.6-4.4c0,0.3,0,0.6,0,0.9v3.4h1v-6.2h-1.3
	L256.8,71.3z"/>
<path d="M53.1,306.3H63c4.5,0,7.4,2.8,7.4,6.2c0.1,2.4-1.2,4.6-3.4,5.5c2.7,1,4.7,2.9,4.7,6.4c0,4.8-3.5,8-9.1,8h-9.5V306.3z
	 M62.4,316.3c1.4,0,2.6-1.2,2.6-2.6s-1.2-2.6-2.6-2.6h-3.7v5.2H62.4z M62.3,327.4c2.4,0,3.9-1,3.9-3.3s-1.4-3.3-3.9-3.3h-3.6v6.6
	H62.3z"/>
<path d="M92.4,324.5H78.7c0.1,2.4,2.1,4.2,4.4,4.2c1.9,0.2,3.6-1,4.2-2.8h5c-0.9,4.5-4.2,7.1-9.2,7.1c-5.8,0-9.6-4.3-9.6-9.8
	c-0.1-5.2,4-9.6,9.2-9.8c0.1,0,0.2,0,0.3,0c5.8,0,9.3,3.5,9.3,10.2L92.4,324.5z M78.9,320.6h8.6c-0.5-1.9-2.4-3.2-4.4-3
	C81.2,317.6,79.5,318.8,78.9,320.6z"/>
<path d="M94.1,326.5h5.3c-0.1,1.1,0.8,2.1,1.9,2.1c0.1,0,0.1,0,0.2,0c1.2,0,2-0.6,2-1.5s-0.8-1.6-2.5-2.1l-2.4-0.7
	c-2.4-0.5-4.1-2.7-4.1-5.1c0-3.4,3.1-5.6,6.9-5.6c4.3,0,6.7,2.5,6.7,5.9h-4.9c0-1-0.8-1.8-1.8-1.8c0,0,0,0-0.1,0
	c-1,0-1.8,0.6-1.8,1.3s0.7,1.3,2.1,1.7l2.7,0.8c2.5,0.7,4.2,2.4,4.2,5.1c0,3.5-2.7,6.5-7.1,6.5C97.4,333,94.1,330.5,94.1,326.5z"/>
<path d="M117.6,318.4v7.1c-0.1,1.1,0.6,2.1,1.7,2.2c0.2,0,0.4,0,0.5,0h2.1v4.8h-3.8c-3.4,0-5.8-2.3-5.8-6.1v-8h-2.7V314h2.7v-4.7
	h5.2v4.7h4.3v4.3L117.6,318.4z"/>
<path d="M131.8,323.3c-0.1-5.5,4.2-10.1,9.8-10.2c5.5-0.1,10.1,4.2,10.2,9.8s-4.2,10.1-9.8,10.2c-0.1,0-0.2,0-0.2,0
	c-5.3,0.3-9.7-3.8-10-9.1C131.8,323.7,131.8,323.5,131.8,323.3z M146.6,323.3c-0.1-2.6-2.3-4.7-4.9-4.6c-2.6,0.1-4.7,2.3-4.6,4.9
	c0.1,2.6,2.2,4.6,4.8,4.6c2.6,0.1,4.7-1.9,4.8-4.5C146.6,323.5,146.6,323.4,146.6,323.3z"/>
<path d="M160.6,313.4v0.6h4.3v4.3h-4.3v14.1h-5.2v-14.1h-2.7V314h2.7v-1.2c0-4.2,2.8-6.5,6.2-6.5h3.4v4.8h-2.1
	c-1.1-0.1-2.1,0.6-2.2,1.7C160.5,313,160.5,313.2,160.6,313.4z"/>
<path d="M181.9,318.4v7.1c-0.1,1.1,0.6,2.1,1.7,2.2c0.2,0,0.4,0,0.5,0h2.1v4.8h-3.8c-3.4,0-5.8-2.3-5.8-6.1v-8H174V314h2.6v-4.7h5.2
	v4.7h4.3v4.3L181.9,318.4z"/>
<path d="M189.1,306.3h5.2v10.2c1.3-2,3.5-3.1,5.9-3c3.7,0,6.2,2.6,6.2,6.8v12.2h-5.2v-10.7c0.1-1.9-1.4-3.5-3.3-3.6
	s-3.5,1.4-3.6,3.3c0,0.1,0,0.2,0,0.4v10.7h-5.2L189.1,306.3z"/>
<path d="M228,324.5h-13.7c0.1,2.4,2.1,4.2,4.4,4.2c1.9,0.2,3.6-1,4.1-2.8h5c-0.9,4.5-4.2,7.1-9.2,7.1c-5.8,0-9.6-4.3-9.6-9.8
	c-0.1-5.2,4-9.6,9.2-9.8c0.1,0,0.2,0,0.3,0c5.8,0,9.4,3.5,9.4,10.2L228,324.5z M214.5,320.6h8.6c-0.5-1.9-2.4-3.2-4.4-3
	C216.8,317.6,215.1,318.8,214.5,320.6z"/>
<path d="M238.7,306.3h9.8c4.5,0,7.4,2.8,7.4,6.2c0.1,2.4-1.3,4.6-3.4,5.5c2.7,1,4.7,2.9,4.7,6.4c0,4.8-3.5,8-9.1,8h-9.4V306.3z
	 M247.9,316.3c1.4,0,2.6-1.2,2.6-2.6s-1.2-2.6-2.6-2.6h-3.7v5.2H247.9z M247.8,327.4c2.4,0,3.9-1,3.9-3.3s-1.4-3.3-3.9-3.3h-3.6v6.6
	H247.8z"/>
<path d="M277.9,324.5h-13.7c0.1,2.4,2.1,4.2,4.4,4.2c1.9,0.2,3.6-1,4.1-2.8h5c-0.9,4.5-4.2,7.1-9.2,7.1c-5.8,0-9.6-4.3-9.6-9.8
	c-0.1-5.2,4-9.6,9.2-9.8c0.1,0,0.2,0,0.3,0c5.8,0,9.4,3.5,9.4,10.2L277.9,324.5z M264.5,320.6h8.5c-0.5-1.9-2.4-3.2-4.4-3
	C266.7,317.6,265.1,318.8,264.5,320.6z"/>
<path d="M279.7,326.5h5.3c-0.1,1.1,0.8,2.1,1.9,2.1c0.1,0,0.1,0,0.2,0c1.2,0,2-0.6,2-1.5s-0.8-1.6-2.5-2.1l-2.4-0.7
	c-2.4-0.5-4.1-2.7-4.1-5.1c0-3.4,3.1-5.6,6.9-5.6c4.3,0,6.7,2.5,6.7,5.9h-4.9c0-1-0.8-1.8-1.8-1.8c0,0,0,0-0.1,0
	c-1,0-1.8,0.6-1.8,1.3s0.7,1.3,2.1,1.7l2.7,0.8c2.5,0.7,4.2,2.4,4.2,5.1c0,3.5-2.7,6.5-7.1,6.5C282.9,333,279.7,330.5,279.7,326.5z"
	/>
<path d="M303.1,318.4v7.1c-0.1,1.1,0.6,2.1,1.7,2.2c0.2,0,0.4,0,0.5,0h2.1v4.8h-3.8c-3.4,0-5.8-2.3-5.8-6.1v-8h-2.6V314h2.6v-4.7
	h5.2v4.7h4.3v4.3L303.1,318.4z"/>
<g>
	<path d="M131.8,282.1l10.9-8.5c1.4-1.1,2.1-2.2,2.1-3.7c0-1.8-1.2-3.1-3.4-3.1c-2.1,0-3.6,1.5-3.7,3.3h-6.6c0-4.6,3.4-9.1,10.4-9.1
		c6.4,0,10.3,3.4,10.3,8.4c0,4-1.8,6.3-6.1,9.3l-3.3,2.3h9.8v5.9h-20.5V282.1z"/>
	<path d="M154.1,274.3c0-7.3,5.4-13.2,13.5-13.2c8.1,0,13.5,5.9,13.5,13.2s-5.4,13.2-13.5,13.2C159.4,287.5,154.1,281.6,154.1,274.3
		z M174.3,274.3c0-4.2-2.9-6.9-6.7-6.9c-3.8,0-6.7,2.7-6.7,6.9c0,4.2,2.9,6.9,6.7,6.9C171.4,281.2,174.3,278.4,174.3,274.3z"/>
	<path d="M183.5,282.1l10.9-8.5c1.4-1.1,2.1-2.2,2.1-3.7c0-1.8-1.2-3.1-3.4-3.1c-2.1,0-3.6,1.5-3.7,3.3h-6.6c0-4.6,3.4-9.1,10.4-9.1
		c6.4,0,10.3,3.4,10.3,8.4c0,4-1.8,6.3-6.1,9.3l-3.3,2.3h9.8v5.9h-20.5V282.1z"/>
	<path d="M206.5,282.8h6.8c0.1,2.5,1.9,4,4.4,4c2.4,0,4.2-1.4,4.2-3.7c0-2.5-1.8-3.7-4.5-3.7h-1.6V274h1.7c2.3,0,3.9-1.4,3.9-3.3
		c0-2-1.5-3.2-3.8-3.2c-2.1,0-3.7,1.4-3.9,3.2h-6.4c0-5.1,4-9.5,10.3-9.5c6.4,0,10.5,3.5,10.5,8.7c0,3.1-1.7,5.3-3.8,6.5
		c2.7,1,4.6,3.5,4.6,7.1c0,5.8-4.6,9.8-11.2,9.8C210.3,293.2,206.5,288.4,206.5,282.8z"/>
</g>
</svg>
